Coordinates
version=1
nRows=13
nColumns=34
inDegrees=yes

Units are S.I. units (second, meters, Newtons, ...)
If the header above contains a line with 'inDegrees', this indicates whether rotational values are in degrees (yes) or radians (no).

endheader
time	pelvis_tilt	pelvis_list	pelvis_rotation	pelvis_tx	pelvis_ty	pelvis_tz	hip_flexion_r	hip_adduction_r	hip_rotation_r	knee_angle_r	ankle_angle_r	subtalar_angle_r	mtp_angle_r	hip_flexion_l	hip_adduction_l	hip_rotation_l	knee_angle_l	ankle_angle_l	subtalar_angle_l	mtp_angle_l	lumbar_extension	lumbar_bending	lumbar_rotation	arm_flex_r	arm_add_r	arm_rot_r	elbow_flex_r	pro_sup_r	arm_flex_l	arm_add_l	arm_rot_l	elbow_flex_l	pro_sup_l
      5.90000000	    -11.14800455	     -0.03618051	     -5.62063785	     -0.17825681	      1.14883263	     -0.19651495	      7.09573246	      0.58172948	    -10.03849285	      1.17858544	      7.27504809	      2.94726447	      0.00000000	      5.61409575	      1.19372453	     -2.46896242	      0.00000000	      5.00304858	      2.69738541	      0.00000000	      9.55848653	      1.51682553	      5.85157118	     -5.52258816	     -7.61683801	     15.17433117	     36.53962937	     74.59436321	      5.09539040	    -12.46098138	     26.93621231	     32.50295196	     79.72529155
      5.91666670	    -11.21467640	     -0.24443672	     -5.63037321	     -0.17943538	      1.14634443	     -0.19852800	      7.81601987	      0.65639742	     -9.41568460	      2.13819765	      7.33701164	      1.81787891	      0.00000000	      5.73888535	      1.01839177	     -2.44253946	      0.00000000	      5.36142553	      3.47133139	      0.00000000	      9.62032382	      1.73091224	      4.96473580	     -4.97962565	     -7.49328597	     15.01026469	     36.80780393	     74.57984809	      4.53870510	    -12.80490510	     26.05170459	     33.01681140	     79.71435109
      5.93333330	    -11.07132141	     -0.56363655	     -5.56612774	     -0.17963203	      1.15130762	     -0.20082670	      8.33236777	      0.80572193	     -9.49614110	      3.35015906	      7.44173589	      1.52869012	      0.00000000	      5.63620653	      0.76435129	     -2.23136067	      0.00000000	      5.57030054	      3.57409284	      0.00000000	      9.25891939	      2.03629042	      4.84866630	     -4.80560250	     -7.58622373	     14.99368251	     36.81399700	     74.57975358	      4.60734929	    -12.83967498	     25.92838876	     33.07645735	     79.71367653
      5.95000000	    -10.92936864	     -0.89705709	     -5.45967831	     -0.18045336	      1.14972568	     -0.20217770	      8.89882353	      0.95772703	     -9.57600710	      4.76842480	      7.69114108	      0.91506602	      0.00000000	      5.51923316	      0.48846419	     -2.10344124	      0.00000000	      5.78235315	      3.67878028	      0.00000000	      8.93921111	      2.24945343	      4.51291730	     -4.49013819	     -7.69826201	     14.96234014	     36.92772463	     74.57736938	      4.60742485	    -12.82260504	     25.79278446	     33.12242967	     79.71540943
      5.96666670	    -11.00619344	     -1.15196806	     -5.32683000	     -0.17972515	      1.15144705	     -0.20501336	      9.84140851	      1.04215423	     -8.89242936	      6.16966361	      7.70039587	     -0.37975632	      0.00000000	      5.60637931	      0.28434485	     -1.92838960	      0.00000000	      5.90719226	      4.02738120	      0.00000000	      8.98727693	      2.51193092	      3.59329544	     -4.12438268	     -7.71566735	     15.13925936	     37.27442407	     74.59994321	      4.05292207	    -12.96380487	     25.08549396	     33.32010982	     79.69524052
      5.98333330	    -10.83087746	     -1.52677389	     -5.17581164	     -0.17924551	      1.15180824	     -0.20503570	     10.38403345	      1.19137051	     -8.91802216	      7.55322447	      7.88632711	     -0.76768899	      0.00000000	      5.40021473	     -0.00732944	     -1.75360424	      0.00000000	      6.03873239	      4.14537670	      0.00000000	      8.60386672	      2.78472045	      3.34347531	     -4.01557515	     -7.82133727	     15.15296318	     37.29273327	     74.59965025	      4.03182965	    -12.90332606	     24.98142894	     33.33953186	     79.69598948
      6.00000000	    -10.67262695	     -1.84737025	     -4.85573955	     -0.17977359	      1.14931000	     -0.20572495	     11.07939204	      1.26307310	     -8.56011133	      9.34996888	      8.24570452	     -1.88010899	      0.00000000	      5.19810075	     -0.28280001	     -1.65756915	      0.00000000	      6.17584469	      4.24453356	      0.00000000	      8.31499565	      3.00337074	      2.65087415	     -3.78408581	     -7.82461871	     15.24450529	     37.47421775	     74.60101553	      3.82912859	    -12.96072205	     24.68818369	     33.22298389	     79.69187915
      6.01666670	    -10.55660663	     -2.28253343	     -4.62812958	     -0.18297012	      1.15138604	     -0.20682443	     11.89065604	      1.47950119	     -8.48109468	     10.95952125	      8.46385837	     -2.44799506	      0.00000000	      5.19453373	     -0.68872238	     -1.38929122	      0.00000000	      6.33782538	      4.40937883	      0.00000000	      7.90907959	      3.35730229	      2.38629624	     -3.48008005	     -7.95175659	     15.24954562	     37.54150397	     74.59779827	      3.90979753	    -12.85161142	     24.59152536	     33.23144647	     79.69171047
      6.03333330	    -10.61457984	     -2.59241160	     -4.32130391	     -0.17958686	      1.15320146	     -0.20763465	     12.75602452	      1.67902798	     -7.57300060	     12.61478260	      8.21637466	     -4.22594684	      0.00000000	      5.21762305	     -1.02635737	     -1.38836589	      0.00000000	      6.30591029	      4.64231390	      0.00000000	      7.94096268	      3.58665037	      1.45982825	     -3.19625835	     -7.90712070	     15.60885451	     37.53643152	     74.60611235	      3.45638769	    -12.82857325	     23.94193817	     32.93286099	     79.66599414
      6.05000000	    -10.48412504	     -2.92596528	     -4.09431066	     -0.17977789	      1.15573307	     -0.20844439	     13.33352240	      1.82657833	     -7.45175305	     13.94595303	      8.66984609	     -4.61625630	      0.00000000	      5.06660201	     -1.34375822	     -1.23800222	      0.00000000	      6.38731355	      4.76384474	      0.00000000	      7.61164447	      3.82583203	      1.26323310	     -3.12534216	     -7.97364907	     15.64692975	     37.49663924	     74.60299216	      3.40974336	    -12.68801620	     23.86531347	     32.88637798	     79.66924352
      6.06666670	    -10.41132779	     -3.14506838	     -3.96038321	     -0.17899819	      1.15788797	     -0.20882361	     13.76781444	      1.96407550	     -7.04784528	     14.81575321	      9.01255447	     -4.86026559	      0.00000000	      4.94706489	     -1.58414776	     -1.15666441	      0.00000000	      6.33288266	      4.88550048	      0.00000000	      7.41844240	      3.94306131	      0.96614879	     -3.10328033	     -7.95826675	     15.69086636	     37.45780477	     74.59935227	      3.20601367	    -12.58396682	     23.78984341	     32.68869325	     79.67283504
      6.08333330	    -10.41155139	     -3.33789960	     -3.81544723	     -0.17806489	      1.15753470	     -0.20816011	     14.10972869	      2.12026887	     -6.69706530	     15.41016424	      9.30840436	     -5.08643186	      0.00000000	      4.84595221	     -1.79518150	     -1.13616727	      0.00000000	      6.39550719	      4.99062376	      0.00000000	      7.33629726	      4.04969603	      0.66285118	     -3.14103096	     -7.90774365	     15.74355232	     37.40029931	     74.59815473	      2.96092485	    -12.48522781	     23.70724586	     32.43067225	     79.67554300
      6.10000000	    -10.43293362	     -3.40514162	     -3.69347756	     -0.17895410	      1.15895693	     -0.20813056	     14.18232381	      2.17503092	     -6.60296242	     15.43017675	      9.31199842	     -5.06359897	      0.00000000	      4.83054429	     -1.86572328	     -1.16953280	      0.00000000	      6.39306930	      4.98510249	      0.00000000	      7.25285868	      3.95890972	      0.62594985	     -3.21497505	     -7.90820296	     15.75430652	     37.36895618	     74.59844555	      2.85462506	    -12.43424614	     23.71590861	     32.38122882	     79.67708604
